# xmcd
#
# Track frame offsets: 
#        150
#        10715
#        24238
#        33575
#        44551
#        53772
#        65194
#        77538
#        87022
#        98432
#        109840
#        121156
#
# Disc length: 1737 seconds
#
# Revision: 0
# Processed by: cddbd v1.5.2PL0 Copyright (c) Steve Scherf et al.
# Submitted via: ExactAudioCopy v1.0b4
#
DISCID=8906c70c
DTITLE=Lester Flatt and Earl Scruggs - Classic Collection
DYEAR=2011
DGENRE=Bluegrass
TTITLE0=Foggy Mountain Breakdown
TTITLE1=Earl's Breakdown
TTITLE2=The Ballad Of Jed Clampett
TTITLE3=I Still Miss Someone
TTITLE4=Foggy Mountain Special
TTITLE5=Petticoat Junction
TTITLE6=Jimmie Brown The Newsboy
TTITLE7=Randy Lynn Rag
TTITLE8=Wabash Cannonball
TTITLE9=You Are My Flower
TTITLE10=Coal Miner's Blues
TTITLE11=Shuckin' The Corn
EXTD=
EXTT0=
EXTT1=
EXTT2=
EXTT3=
EXTT4=
EXTT5=
EXTT6=
EXTT7=
EXTT8=
EXTT9=
EXTT10=
EXTT11=
PLAYORDER=
